<?xml version="1.0" encoding="UTF-8" standalone="no"?>
<svg
   width="75"
   height="75"
   viewBox="0 0 19.843749 19.84375"
   version="1.1"
   id="svg8"
   inkscape:version="1.3.2 (091e20e, 2023-11-25, custom)"
   sodipodi:docname="dj-logo.svg"
   xmlns:inkscape="http://www.inkscape.org/namespaces/inkscape"
   xmlns:sodipodi="http://sodipodi.sourceforge.net/DTD/sodipodi-0.dtd"
   xmlns="http://www.w3.org/2000/svg"
   xmlns:svg="http://www.w3.org/2000/svg"
   xmlns:rdf="http://www.w3.org/1999/02/22-rdf-syntax-ns#"
   xmlns:cc="http://creativecommons.org/ns#"
   xmlns:dc="http://purl.org/dc/elements/1.1/">
  <defs
     id="defs2" />
  <sodipodi:namedview
     id="base"
     pagecolor="#ffffff"
     bordercolor="#666666"
     borderopacity="1.0"
     inkscape:pageopacity="0.0"
     inkscape:pageshadow="2"
     inkscape:zoom="5.6"
     inkscape:cx="13.303571"
     inkscape:cy="34.375"
     inkscape:document-units="px"
     inkscape:current-layer="layer1"
     inkscape:document-rotation="0"
     showgrid="false"
     units="px"
     showborder="false"
     inkscape:pagecheckerboard="true"
     inkscape:showpageshadow="2"
     inkscape:deskcolor="#d1d1d1"
     inkscape:window-width="1920"
     inkscape:window-height="1017"
     inkscape:window-x="0"
     inkscape:window-y="1072"
     inkscape:window-maximized="1" />
  <metadata
     id="metadata5">
    <rdf:RDF>
      <cc:Work
         rdf:about="">
        <dc:format>image/svg+xml</dc:format>
        <dc:type
           rdf:resource="http://purl.org/dc/dcmitype/StillImage" />
      </cc:Work>
    </rdf:RDF>
  </metadata>
  <g
     inkscape:label="Layer 1"
     inkscape:groupmode="layer"
     id="layer1"
     transform="translate(-3.307291,-3.307291)">
    <circle
       style="fill:#1a1a1a;stroke-width:22.2598;stroke-linejoin:round;paint-order:stroke markers fill"
       id="path1"
       cx="13.229166"
       cy="13.229166"
       r="9.921875" />
    <path
       style="font-weight:800;font-size:11.2889px;line-height:1.25;font-family:Geist;-inkscape-font-specification:'Geist Ultra-Bold';letter-spacing:-0.735542px;fill:#ffffff;stroke-width:0.264583"
       d="M 6.6215208,17.146415 V 9.1312958 h 2.8560917 q 1.9868465,0 3.0480035,1.0498672 1.072445,1.038579 1.072445,2.968981 0,1.919113 -1.049868,2.957692 -1.049867,1.038579 -3.0028471,1.038579 z m 1.9642686,-1.603024 h 0.8918231 q 1.0837345,0 1.5917345,-0.587023 0.508001,-0.587023 0.508001,-1.817513 0,-1.23049 -0.508001,-1.817513 -0.508,-0.587023 -1.5917345,-0.587023 H 8.5857894 Z m 8.2143086,1.783646 q -1.004712,0 -1.682046,-0.4064 -0.677334,-0.406401 -1.02729,-1.106312 -0.349956,-0.711201 -0.361245,-1.603024 l 1.964269,-0.09031 q 0.02258,0.835378 0.3048,1.219201 0.293512,0.383823 0.801512,0.383823 0.496712,0 0.778934,-0.349956 0.293511,-0.361245 0.293511,-1.140179 V 9.1312958 h 1.964269 v 5.1025832 q 0,0.948267 -0.383822,1.648179 -0.383823,0.688623 -1.072446,1.072446 -0.677334,0.372533 -1.580446,0.372533 z"
       id="text3"
       aria-label="DJ" />
  </g>
</svg>
